<?xml version="1.0" encoding="utf-8"?>
<!-- Generated by IcoMoon.io -->
<!DOCTYPE svg PUBLIC "-//W3C//DTD SVG 1.1//EN" "http://www.w3.org/Graphics/SVG/1.1/DTD/svg11.dtd">
<svg version="1.1" xmlns="http://www.w3.org/2000/svg" xmlns:xlink="http://www.w3.org/1999/xlink" width="48" height="48" viewBox="0 0 48 48">
<g id="icomoon-ignore">
	<line stroke-width="1" x1="" y1="" x2="" y2="" stroke="#449FDB" opacity=""></line>
</g>
	<path d="M48.070 37.5c0-13.5-12-10.5-12-21 0-0.87-0.084-1.613-0.237-2.247-0.789-5.298-4.32-9.549-8.896-10.845 0.041-0.185 0.062-0.377 0.062-0.572 0-1.56-1.35-2.836-3-2.836s-3 1.276-3 2.836c0 0.196 0.021 0.387 0.062 0.572-5.131 1.453-8.949 6.623-9.059 12.818-0.002 0.090-0.003 0.181-0.003 0.274 0 10.5-12 7.5-12 21 0 3.573 7.996 6.562 18.702 7.316 1.009 1.894 3.003 3.184 5.298 3.184s4.289-1.29 5.298-3.184c10.705-0.754 18.702-3.743 18.702-7.316 0-0.011-0.001-0.021-0.001-0.032l0.072 0.032zM38.73 40.036c-2.542 0.678-5.539 1.166-8.755 1.437-0.267-3.066-2.84-5.472-5.976-5.472s-5.708 2.406-5.976 5.472c-3.216-0.271-6.213-0.758-8.755-1.437-3.498-0.933-5.171-1.978-5.783-2.536 0.612-0.558 2.285-1.602 5.783-2.536 4.067-1.085 9.299-1.683 14.73-1.683s10.663 0.598 14.73 1.683c3.498 0.933 5.171 1.978 5.783 2.536-0.612 0.558-2.285 1.602-5.783 2.536z" fill="#333333"></path>
</svg>
