<?xml version="1.0" encoding="utf-8"?>
<!-- Generated by IcoMoon.io -->
<!DOCTYPE svg PUBLIC "-//W3C//DTD SVG 1.1//EN" "http://www.w3.org/Graphics/SVG/1.1/DTD/svg11.dtd">
<svg version="1.1" xmlns="http://www.w3.org/2000/svg" xmlns:xlink="http://www.w3.org/1999/xlink" width="48" height="48" viewBox="0 0 48 48">
<g id="icomoon-ignore">
	<line stroke-width="1" x1="" y1="" x2="" y2="" stroke="#449FDB" opacity=""></line>
</g>
	<path d="M18 9c11.598 0 21 9.402 21 21h-4.5c0-4.407-1.716-8.551-4.833-11.667s-7.26-4.833-11.667-4.833v-4.5zM18 0c16.568 0 30 13.432 30 30h-4.5c0-3.444-0.674-6.783-2.002-9.924-1.284-3.036-3.123-5.764-5.467-8.107s-5.071-4.183-8.107-5.467c-3.141-1.328-6.48-2.002-9.924-2.002v-4.5zM26.925 21.075c2.051 2.051 3.075 4.739 3.074 7.427-2.998 4.5-2.998 10.497-2.998 10.497-12 0-21 9-21 9l-1.74-1.74 13.293-13.293c0.146 0.022 0.295 0.033 0.448 0.033 1.657 0 3-1.343 3-3s-1.343-3-3-3c-1.657 0-3 1.343-3 3 0 0.152 0.012 0.302 0.033 0.448l-13.293 13.293-1.74-1.74c0 0 9-9 9-21 0 0 6 0 10.5-3 2.687 0 5.374 1.025 7.425 3.075z" fill="#333333"></path>
</svg>
