<?xml version="1.0" encoding="utf-8"?>
<!-- Generated by IcoMoon.io -->
<!DOCTYPE svg PUBLIC "-//W3C//DTD SVG 1.1//EN" "http://www.w3.org/Graphics/SVG/1.1/DTD/svg11.dtd">
<svg version="1.1" xmlns="http://www.w3.org/2000/svg" xmlns:xlink="http://www.w3.org/1999/xlink" width="48" height="48" viewBox="0 0 48 48">
<g id="icomoon-ignore">
	<line stroke-width="1" x1="" y1="" x2="" y2="" stroke="#449FDB" opacity=""></line>
</g>
	<path d="M18 13.5c0-4.142 3.358-7.5 7.5-7.5s7.5 3.358 7.5 7.5c0 4.142-3.358 7.5-7.5 7.5s-7.5-3.358-7.5-7.5zM0 13.5c0-4.142 3.358-7.5 7.5-7.5s7.5 3.358 7.5 7.5c0 4.142-3.358 7.5-7.5 7.5s-7.5-3.358-7.5-7.5zM36 28.5v-4.5c0-1.65-1.35-3-3-3h-30c-1.65 0-3 1.35-3 3v15c0 1.65 1.35 3 3 3h30c1.65 0 3-1.35 3-3v-4.5l12 7.5v-21l-12 7.5zM30 36h-24v-9h24v9z" fill="#333333"></path>
</svg>
