<?xml version="1.0" encoding="utf-8"?>
<!-- Generated by IcoMoon.io -->
<!DOCTYPE svg PUBLIC "-//W3C//DTD SVG 1.1//EN" "http://www.w3.org/Graphics/SVG/1.1/DTD/svg11.dtd">
<svg version="1.1" xmlns="http://www.w3.org/2000/svg" xmlns:xlink="http://www.w3.org/1999/xlink" width="48" height="48" viewBox="0 0 48 48">
<g id="icomoon-ignore">
	<line stroke-width="1" x1="" y1="" x2="" y2="" stroke="#449FDB" opacity=""></line>
</g>
	<path d="M6 43.5c0-2.485 2.015-4.5 4.5-4.5s4.5 2.015 4.5 4.5c0 2.485-2.015 4.5-4.5 4.5s-4.5-2.015-4.5-4.5zM36 43.5c0-2.485 2.015-4.5 4.5-4.5s4.5 2.015 4.5 4.5c0 2.485-2.015 4.5-4.5 4.5s-4.5-2.015-4.5-4.5zM45 24v-18h-39c0-3.314-2.686-6-6-6v3c1.654 0 3 1.346 3 3l2.253 19.315c-1.373 1.1-2.253 2.789-2.253 4.685 0 3.314 2.686 6 6 6h36v-3h-36c-1.657 0-3-1.343-3-3 0-0.010 0.001-0.020 0.001-0.031l38.999-5.969z" fill="#333333"></path>
</svg>
