<?xml version="1.0" encoding="utf-8"?>
<!-- Generated by IcoMoon.io -->
<!DOCTYPE svg PUBLIC "-//W3C//DTD SVG 1.1//EN" "http://www.w3.org/Graphics/SVG/1.1/DTD/svg11.dtd">
<svg version="1.1" xmlns="http://www.w3.org/2000/svg" xmlns:xlink="http://www.w3.org/1999/xlink" width="48" height="48" viewBox="0 0 48 48">
<g id="icomoon-ignore">
	<line stroke-width="1" x1="" y1="" x2="" y2="" stroke="#449FDB" opacity=""></line>
</g>
	<path d="M39.713 27c1.65 0 3.371-1.298 3.824-2.885l4.352-15.231c0.453-1.586-0.526-2.884-2.176-2.884h-30.713c0-3.314-2.686-6-6-6h-9v6h9v25.5c0 2.485 2.015 4.5 4.5 4.5h28.5c1.657 0 3-1.343 3-3s-1.343-3-3-3h-27v-3h24.713zM15 12h27.132l-2.571 9h-24.56v-9zM18 44.25c0 2.063-1.688 3.75-3.75 3.75h-1.5c-2.063 0-3.75-1.688-3.75-3.75v-1.5c0-2.063 1.688-3.75 3.75-3.75h1.5c2.063 0 3.75 1.688 3.75 3.75v1.5zM45 44.25c0 2.063-1.688 3.75-3.75 3.75h-1.5c-2.063 0-3.75-1.688-3.75-3.75v-1.5c0-2.063 1.688-3.75 3.75-3.75h1.5c2.063 0 3.75 1.688 3.75 3.75v1.5z" fill="#333333"></path>
</svg>
