<?xml version="1.0" encoding="utf-8"?>
<!-- Generated by IcoMoon.io -->
<!DOCTYPE svg PUBLIC "-//W3C//DTD SVG 1.1//EN" "http://www.w3.org/Graphics/SVG/1.1/DTD/svg11.dtd">
<svg version="1.1" xmlns="http://www.w3.org/2000/svg" xmlns:xlink="http://www.w3.org/1999/xlink" width="48" height="48" viewBox="0 0 48 48">
<g id="icomoon-ignore">
	<line stroke-width="1" x1="" y1="" x2="" y2="" stroke="#449FDB" opacity=""></line>
</g>
	<path d="M45.824 9.115c-1.593-0.455-3.254 0.467-3.709 2.060l-0.235 0.824h-27.982l-0.421-3.372c-0.188-1.501-1.464-2.628-2.977-2.628h-7.5c-1.657 0-3 1.343-3 3s1.343 3 3 3h4.852l2.671 21.372c0.188 1.501 1.464 2.628 2.977 2.628h25.5c1.339 0 2.517-0.888 2.885-2.176l6-21c0.455-1.593-0.467-3.254-2.060-3.709zM24 24v-3h6v3h-6zM30 27v3h-6v-3h6zM24 18v-3h6v3h-6zM14.273 15h6.727v3h-6.352l-0.375-3zM15.023 21h5.977v3h-5.602l-0.375-3zM15.773 27h5.227v3h-4.852l-0.375-3zM36.737 30h-3.737v-3h4.594l-0.857 3zM38.451 24h-5.452v-3h6.309l-0.857 3zM40.166 18h-7.166v-3h8.023l-0.857 3zM12 43.5c0-2.485 2.015-4.5 4.5-4.5s4.5 2.015 4.5 4.5c0 2.485-2.015 4.5-4.5 4.5s-4.5-2.015-4.5-4.5zM30 43.5c0-2.485 2.015-4.5 4.5-4.5s4.5 2.015 4.5 4.5c0 2.485-2.015 4.5-4.5 4.5s-4.5-2.015-4.5-4.5z" fill="#333333"></path>
</svg>
