<?xml version="1.0" encoding="utf-8"?>
<!-- Generated by IcoMoon.io -->
<!DOCTYPE svg PUBLIC "-//W3C//DTD SVG 1.1//EN" "http://www.w3.org/Graphics/SVG/1.1/DTD/svg11.dtd">
<svg version="1.1" xmlns="http://www.w3.org/2000/svg" xmlns:xlink="http://www.w3.org/1999/xlink" width="48" height="48" viewBox="0 0 48 48">
<g id="icomoon-ignore">
	<line stroke-width="1" x1="" y1="" x2="" y2="" stroke="#449FDB" opacity=""></line>
</g>
	<path d="M41.997 29.695c-0.001-0.033-0.001-0.066-0.002-0.099-0.002-0.067-0.003-0.134-0.006-0.201-0.47-14.796-17.99-29.396-17.99-29.396s-17.52 14.6-17.99 29.396c-0.002 0.067-0.004 0.134-0.006 0.201-0.001 0.033-0.001 0.066-0.002 0.099-0.002 0.101-0.003 0.203-0.003 0.305 0 0.111 0.001 0.221 0.003 0.332 0 0.009 0 0.018 0.001 0.027 0.191 9.775 8.175 17.64 17.996 17.64s17.805-7.866 17.996-17.641c0-0.009 0-0.018 0-0.027 0.002-0.11 0.003-0.221 0.003-0.332 0-0.102-0.001-0.203-0.003-0.305zM35.998 30.222l-0 0.019c-0.062 3.154-1.337 6.109-3.592 8.323-2.257 2.216-5.242 3.436-8.405 3.436-0.584 0-1.162-0.042-1.731-0.124 6.518-3.883 10.885-11.002 10.885-19.14 0-0.912-0.055-1.811-0.162-2.694 1.888 3.466 2.909 6.694 3 9.545l0 0.007c0.002 0.044 0.002 0.089 0.004 0.133l0.001 0.068c0.001 0.068 0.002 0.137 0.002 0.205 0 0.074-0.001 0.148-0.002 0.222z" fill="#333333"></path>
</svg>
