<?xml version="1.0" encoding="utf-8"?>
<!-- Generated by IcoMoon.io -->
<!DOCTYPE svg PUBLIC "-//W3C//DTD SVG 1.1//EN" "http://www.w3.org/Graphics/SVG/1.1/DTD/svg11.dtd">
<svg version="1.1" xmlns="http://www.w3.org/2000/svg" xmlns:xlink="http://www.w3.org/1999/xlink" width="48" height="48" viewBox="0 0 48 48">
<g id="icomoon-ignore">
	<line stroke-width="1" x1="" y1="" x2="" y2="" stroke="#449FDB" opacity=""></line>
</g>
	<path d="M18 9h6v3h-6zM27 9h6v3h-6zM42 9v12h-9v-3h6v-6h-3v-3zM15 18h6v3h-6zM24 18h6v3h-6zM9 12v6h3v3h-6v-12h9v3zM18 27h6v3h-6zM27 27h6v3h-6zM42 27v12h-9v-3h6v-6h-3v-3zM15 36h6v3h-6zM24 36h6v3h-6zM9 30v6h3v3h-6v-12h9v3zM45 3h-42v42h42v-42zM48 0v0 48h-48v-48h48z" fill="#333333"></path>
</svg>
