<?xml version="1.0" encoding="utf-8"?>
<!-- Generated by IcoMoon.io -->
<!DOCTYPE svg PUBLIC "-//W3C//DTD SVG 1.1//EN" "http://www.w3.org/Graphics/SVG/1.1/DTD/svg11.dtd">
<svg version="1.1" xmlns="http://www.w3.org/2000/svg" xmlns:xlink="http://www.w3.org/1999/xlink" width="48" height="48" viewBox="0 0 48 48">
<g id="icomoon-ignore">
	<line stroke-width="1" x1="" y1="" x2="" y2="" stroke="#449FDB" opacity=""></line>
</g>
	<path d="M44.69 3.499l-0.189-0.189c-4.413-4.413-11.634-4.413-16.047 0l-10.224 10.225c-4.413 4.412-4.413 11.633 0 16.046l0.189 0.189c0.367 0.368 0.757 0.7 1.16 1.006l3.743-3.743c-0.436-0.258-0.85-0.566-1.224-0.94l-0.189-0.189c-2.396-2.395-2.396-6.294 0-8.69l10.225-10.224c2.396-2.396 6.294-2.396 8.69 0l0.189 0.189c2.395 2.396 2.395 6.295 0 8.69l-4.626 4.626c0.803 1.983 1.184 4.097 1.15 6.206l7.153-7.153c4.413-4.413 4.413-11.633-0-16.046zM29.58 18.231c-0.367-0.367-0.757-0.699-1.16-1.005l-3.743 3.742c0.436 0.258 0.85 0.566 1.224 0.94l0.189 0.189c2.396 2.396 2.396 6.294 0 8.69l-10.225 10.225c-2.396 2.395-6.294 2.395-8.69 0l-0.189-0.189c-2.395-2.396-2.395-6.294 0-8.69l4.626-4.626c-0.803-1.983-1.183-4.097-1.15-6.206l-7.153 7.153c-4.413 4.412-4.413 11.633 0 16.046l0.189 0.189c4.413 4.412 11.634 4.412 16.047 0l10.224-10.224c4.413-4.412 4.413-11.634 0-16.047l-0.189-0.189z" fill="#333333"></path>
</svg>
