<?xml version="1.0" encoding="utf-8"?>
<!-- Generated by IcoMoon.io -->
<!DOCTYPE svg PUBLIC "-//W3C//DTD SVG 1.1//EN" "http://www.w3.org/Graphics/SVG/1.1/DTD/svg11.dtd">
<svg version="1.1" xmlns="http://www.w3.org/2000/svg" xmlns:xlink="http://www.w3.org/1999/xlink" width="48" height="48" viewBox="0 0 48 48">
<g id="icomoon-ignore">
	<line stroke-width="1" x1="" y1="" x2="" y2="" stroke="#449FDB" opacity=""></line>
</g>
	<path d="M6 12h6v9h3v-18c0-1.65-1.35-3-3-3h-6c-1.65 0-3 1.35-3 3v18h3v-9zM6 3h6v6h-6v-6zM45 3v-3h-9c-1.65 0-3 1.35-3 3v15c0 1.65 1.35 3 3 3h9v-3h-9v-15h9zM30 7.5v-4.5c0-1.65-1.35-3-3-3h-9v21h9c1.65 0 3-1.35 3-3v-4.5c0-1.65-0.412-3-2.063-3 1.65 0 2.063-1.35 2.063-3zM27 18h-6v-6h6v6zM27 9h-6v-6h6v6zM39 27l-19.5 21-10.5-13.5 3.844-3.281 6.656 6.938 16.5-14.156z" fill="#333333"></path>
</svg>
