<?xml version="1.0" encoding="utf-8"?>
<!-- Generated by IcoMoon.io -->
<!DOCTYPE svg PUBLIC "-//W3C//DTD SVG 1.1//EN" "http://www.w3.org/Graphics/SVG/1.1/DTD/svg11.dtd">
<svg version="1.1" xmlns="http://www.w3.org/2000/svg" xmlns:xlink="http://www.w3.org/1999/xlink" width="48" height="48" viewBox="0 0 48 48">
<g id="icomoon-ignore">
	<line stroke-width="1" x1="" y1="" x2="" y2="" stroke="#449FDB" opacity=""></line>
</g>
	<path d="M45.75 48h-31.5c-1.243 0-2.25-1.007-2.25-2.25 0-3.228 1.363-7.135 3.645-10.45 1.907-2.771 4.251-4.857 6.782-6.075-1.116-1.015-2.076-2.251-2.836-3.662-1.219-2.262-1.863-4.877-1.863-7.562 0-3.732 1.228-7.257 3.459-9.928 2.328-2.787 5.458-4.322 8.814-4.322s6.486 1.535 8.814 4.322c2.23 2.67 3.459 6.196 3.459 9.928 0 2.685-0.644 5.3-1.863 7.562-0.76 1.411-1.721 2.647-2.836 3.662 2.531 1.218 4.874 3.304 6.782 6.075 2.282 3.316 3.645 7.222 3.645 10.45 0 1.243-1.007 2.25-2.25 2.25zM16.785 43.5h26.431c-0.432-1.844-1.337-3.862-2.567-5.649-1.943-2.823-4.368-4.67-6.827-5.2-1.036-0.223-1.776-1.14-1.776-2.2v-1.607c0-0.809 0.434-1.556 1.138-1.956 2.788-1.586 4.59-5.075 4.59-8.889 0-5.376-3.487-9.75-7.773-9.75s-7.773 4.374-7.773 9.75c0 3.814 1.802 7.303 4.59 8.889 0.703 0.4 1.138 1.147 1.138 1.956v1.607c0 1.060-0.74 1.976-1.776 2.2-2.459 0.53-4.884 2.377-6.827 5.2-1.23 1.787-2.134 3.805-2.567 5.649zM9.24 40.5h-4.455c0.433-1.844 1.337-3.862 2.567-5.649 1.943-2.823 4.368-4.67 6.827-5.2 1.036-0.223 1.776-1.14 1.776-2.2v-1.607c0-0.809-0.434-1.556-1.138-1.956-2.788-1.586-4.59-5.075-4.59-8.889 0-5.376 3.487-9.75 7.773-9.75 0.293 0 0.582 0.021 0.867 0.061 1.236-1.375 2.636-2.493 4.155-3.328-1.556-0.808-3.258-1.233-5.022-1.233-3.356 0-6.486 1.535-8.814 4.322-2.23 2.67-3.459 6.196-3.459 9.928 0 2.685 0.644 5.3 1.863 7.562 0.76 1.411 1.721 2.647 2.836 3.662-2.531 1.218-4.874 3.304-6.782 6.075-2.282 3.316-3.645 7.222-3.645 10.45 0 1.243 1.007 2.25 2.25 2.25h6.206c0.069-1.454 0.337-2.972 0.784-4.5z" fill="#333333"></path>
</svg>
